<?xml version="1.0" standalone="no"?>
<!DOCTYPE svg PUBLIC "-//W3C//DTD SVG 20010904//EN"
 "http://www.w3.org/TR/2001/REC-SVG-20010904/DTD/svg10.dtd">
<svg version="1.0" xmlns="http://www.w3.org/2000/svg"
 width="620.000000pt" height="620.000000pt" viewBox="0 0 620.000000 620.000000"
 preserveAspectRatio="xMidYMid meet">
<metadata>
Created by potrace 1.14, written by Peter Selinger 2001-2017
</metadata>
<g transform="translate(0.000000,620.000000) scale(0.100000,-0.100000)"
fill="#000000" stroke="none">
<path d="M3080 6003 c-24 -10 -135 -127 -135 -143 0 -9 -11 -15 -30 -17 -179
-13 -254 -22 -285 -33 -14 -5 -43 -12 -65 -16 -22 -4 -42 -8 -45 -9 -3 0 -23
-5 -45 -10 -116 -25 -220 -54 -285 -81 -36 -14 -76 -28 -90 -31 -13 -2 -28
-10 -32 -16 -4 -7 -8 -8 -8 -4 0 5 -20 -3 -45 -18 -25 -14 -56 -28 -68 -31
-12 -2 -23 -8 -25 -14 -2 -6 -8 -8 -13 -4 -5 3 -9 0 -9 -5 0 -6 -3 -10 -7 -9
-10 2 -66 -21 -73 -30 -3 -4 -30 -19 -61 -35 -32 -15 -62 -34 -69 -42 -7 -8
-19 -15 -26 -15 -8 0 -14 -5 -14 -11 0 -5 -3 -8 -8 -5 -9 6 -119 -69 -171
-117 -23 -21 -41 -35 -41 -32 0 7 -20 -9 -71 -57 -21 -20 -39 -34 -39 -31 0 8
-236 -234 -286 -293 -22 -27 -41 -53 -42 -58 0 -5 -4 -12 -9 -15 -18 -13 -103
-119 -103 -128 0 -5 -9 -18 -20 -28 -11 -10 -22 -26 -26 -37 -3 -11 -23 -46
-45 -78 -21 -33 -39 -64 -39 -70 0 -6 -11 -26 -24 -43 -29 -40 -59 -97 -50
-97 4 0 0 -8 -8 -17 -9 -10 -30 -56 -48 -103 -18 -47 -36 -94 -41 -105 -20
-46 -33 -81 -34 -90 -1 -5 -7 -26 -13 -46 -7 -20 -15 -47 -17 -60 -3 -12 -11
-37 -19 -54 -8 -16 -17 -46 -20 -66 -3 -20 -8 -42 -10 -50 -3 -8 -7 -36 -10
-64 -2 -27 -9 -62 -15 -76 -11 -30 -34 -219 -27 -226 2 -3 0 -19 -5 -36 -9
-31 -12 -323 -5 -422 10 -125 17 -186 32 -265 9 -47 18 -96 21 -109 17 -93 52
-228 69 -268 8 -17 14 -38 14 -47 0 -8 11 -40 25 -70 14 -30 25 -60 25 -65 0
-6 4 -19 9 -29 20 -36 55 -117 57 -129 3 -21 -13 -15 -30 11 -22 34 -66 24
-66 -15 0 -41 131 -255 162 -264 23 -8 46 9 50 38 2 17 14 5 57 -58 60 -89 85
-123 118 -162 23 -26 22 -53 -1 -34 -15 12 -43 -5 -48 -29 -5 -23 48 -103 114
-172 38 -39 93 -9 68 37 -27 50 0 33 98 -62 125 -121 157 -150 255 -226 42
-33 77 -64 77 -69 0 -4 6 -8 13 -8 7 0 22 -8 33 -18 10 -10 46 -33 79 -51 33
-19 62 -36 65 -40 14 -17 307 -161 400 -197 41 -15 78 -32 81 -37 3 -5 8 -8
10 -6 4 2 82 -19 194 -53 39 -12 78 -23 88 -25 9 -2 25 -5 35 -6 9 -2 40 -7
67 -11 28 -4 64 -12 80 -16 17 -5 57 -11 90 -14 95 -8 107 -13 152 -61 24 -25
48 -45 53 -45 6 0 10 -5 10 -11 0 -14 99 -128 122 -140 19 -10 48 -2 48 14 0
6 23 32 52 59 28 26 48 48 44 48 -9 0 20 30 31 32 4 1 26 21 48 45 42 45 50
48 165 58 30 3 73 9 95 15 22 5 83 19 135 31 52 11 113 27 135 34 22 7 67 20
100 30 33 10 66 22 73 28 6 5 12 6 12 2 0 -4 7 -2 15 5 8 7 15 9 15 5 0 -4 11
0 25 9 14 9 25 14 25 10 0 -3 11 1 25 10 14 9 25 14 25 11 0 -3 20 6 45 19 25
14 45 23 45 20 0 -3 12 3 28 14 15 10 43 25 62 32 19 8 37 17 40 21 3 3 30 19
60 34 30 15 69 38 86 51 17 13 35 24 40 24 6 0 25 13 44 30 19 16 40 29 46 30
6 0 21 11 34 25 13 14 28 25 33 25 5 0 28 16 51 36 22 20 65 57 95 83 30 25
93 85 140 134 48 48 89 87 93 87 3 0 9 -11 12 -24 4 -15 16 -26 32 -30 23 -6
33 0 67 36 22 23 51 60 65 80 13 21 28 38 31 38 4 0 15 14 25 31 10 17 32 46
48 65 17 19 27 34 23 34 -4 0 6 17 22 38 54 69 193 310 193 333 0 16 -33 39
-55 39 -27 0 -39 24 -21 43 7 7 19 31 27 52 7 22 17 45 21 51 5 7 11 21 13 33
3 12 7 29 9 40 3 10 9 27 14 37 16 30 43 111 45 133 1 12 4 21 8 21 3 0 9 15
13 32 3 18 10 53 15 78 5 25 12 63 15 85 4 22 13 76 21 120 8 44 17 98 20 120
10 69 13 496 5 575 -20 182 -31 263 -37 273 -3 5 -8 27 -9 47 -2 21 -17 89
-34 151 -17 63 -33 125 -36 138 -3 13 -11 36 -19 52 -8 15 -15 35 -15 44 0 8
-4 15 -8 15 -5 0 -13 19 -19 43 -13 47 -73 199 -84 207 -3 3 -10 16 -14 30 -4
14 -17 39 -29 55 -11 17 -21 33 -21 37 0 7 -31 60 -80 135 -16 26 -35 55 -41
65 -6 10 -23 32 -38 48 -14 17 -23 30 -19 30 5 0 0 5 -9 11 -10 5 -18 16 -18
23 0 12 -26 44 -85 107 -14 14 -25 31 -25 36 0 5 -21 30 -47 55 -27 25 -57 57
-68 71 -11 15 -24 27 -28 27 -12 0 -37 27 -37 39 0 6 -8 15 -17 20 -10 5 -34
25 -53 45 -19 19 -39 36 -44 36 -5 0 -15 8 -22 18 -7 9 -17 17 -22 17 -6 0
-19 8 -29 18 -30 29 -145 117 -153 117 -5 0 -27 16 -50 35 -23 19 -48 35 -54
35 -7 0 -21 9 -31 20 -10 11 -21 17 -25 15 -4 -3 -11 2 -14 11 -3 8 -10 13
-15 10 -4 -3 -19 3 -31 14 -12 11 -27 17 -31 14 -5 -3 -9 -2 -9 3 0 9 -57 37
-64 31 -2 -2 -13 6 -25 16 -12 11 -21 16 -21 12 0 -4 -29 9 -65 29 -36 20 -69
34 -74 30 -5 -3 -11 0 -13 6 -2 7 -13 13 -24 14 -10 1 -30 7 -44 15 -13 7 -31
14 -40 15 -8 1 -28 7 -45 14 -16 7 -40 14 -52 14 -13 1 -23 5 -23 10 0 4 -13
7 -28 7 -15 0 -32 4 -38 9 -5 6 -31 13 -59 16 -27 4 -54 11 -60 15 -5 4 -20 6
-32 5 -13 -1 -23 1 -23 5 0 4 -23 8 -51 9 -29 1 -57 5 -63 8 -6 4 -18 9 -26
10 -14 2 -98 11 -212 22 -5 1 -8 7 -8 15 0 21 -133 149 -151 145 -2 0 -11 -3
-19 -6z"/>
<path d="M2002 5828 c-19 -19 -14 -55 8 -61 34 -9 60 3 60 29 0 35 -44 56 -68
32z"/>
<path d="M4142 5808 c-16 -16 -15 -38 4 -59 22 -24 66 -6 61 25 -6 44 -38 61
-65 34z"/>
<path d="M1903 5791 c-17 -10 -21 -60 -7 -72 29 -24 71 13 59 51 -6 19 -37 31
-52 21z"/>
<path d="M1786 5741 c-24 -26 -13 -61 19 -61 54 0 63 21 27 63 -19 22 -25 21
-46 -2z"/>
<path d="M4380 5705 c-7 -8 -10 -25 -6 -39 8 -33 53 -33 68 0 19 42 -32 75
-62 39z"/>
<path d="M1426 5543 c-54 -38 -105 -72 -114 -78 -9 -5 -32 -25 -51 -44 -20
-18 -51 -45 -69 -59 -43 -33 -64 -72 -51 -95 17 -30 53 -19 113 33 64 56 183
146 268 204 63 42 73 58 58 87 -18 32 -52 22 -154 -48z"/>
<path d="M4746 5485 c-20 -31 -20 -31 4 -57 l19 -21 20 24 c25 30 25 31 1 57
-26 27 -24 27 -44 -3z"/>
<path d="M4973 5283 c-26 -10 -11 -40 50 -101 56 -55 65 -61 81 -49 27 20 11
56 -50 110 -55 47 -59 50 -81 40z"/>
<path d="M1012 5110 c-62 -58 -78 -95 -41 -95 26 0 153 121 146 139 -11 29
-41 16 -105 -44z"/>
<path d="M5407 5103 c-17 -16 -2 -44 69 -128 42 -49 84 -100 95 -112 22 -27
32 -28 48 -9 15 18 5 39 -48 106 -111 141 -141 167 -164 143z"/>
<path d="M757 4802 c-46 -48 -53 -85 -17 -95 15 -4 28 6 52 36 39 48 44 73 19
86 -14 8 -25 3 -54 -27z"/>
<path d="M5360 4820 c-8 -15 -6 -24 10 -40 17 -17 23 -18 40 -8 21 13 24 26
14 52 -9 23 -51 20 -64 -4z"/>
<path d="M538 4513 c-22 -24 -6 -53 28 -53 28 0 42 25 27 49 -15 23 -37 25
-55 4z"/>
<path d="M5607 4402 c-22 -25 -21 -38 4 -56 19 -13 23 -13 42 4 19 18 19 20 3
45 -20 30 -28 31 -49 7z"/>
<path d="M426 4213 c-4 -9 -1 -23 7 -30 11 -11 16 -11 32 1 16 12 17 16 6 30
-17 21 -37 20 -45 -1z"/>
<path d="M5761 4046 c-10 -11 -6 -31 15 -91 29 -82 34 -88 58 -79 22 8 20 38
-5 104 -30 80 -45 94 -68 66z"/>
<path d="M255 3876 c-18 -26 -13 -65 8 -67 7 -1 1 -4 -12 -8 -18 -5 -29 -20
-42 -56 -31 -89 -20 -141 27 -129 27 7 59 100 51 147 -4 29 -2 36 13 40 23 6
37 54 23 76 -17 26 -50 25 -68 -3z"/>
<path d="M5856 3735 c-13 -10 -17 -21 -12 -40 5 -21 12 -26 33 -23 34 4 52 31
37 56 -15 22 -35 25 -58 7z"/>
<path d="M5886 3637 c-25 -18 -18 -61 10 -65 21 -3 54 21 54 38 0 10 -29 40
-39 40 -4 0 -15 -6 -25 -13z"/>
<path d="M5900 3535 c-25 -30 15 -70 45 -45 20 16 19 46 -1 54 -23 9 -30 8
-44 -9z"/>
<path d="M233 3263 c-15 -5 -17 -39 -4 -47 14 -9 41 4 41 19 0 17 -22 33 -37
28z"/>
<path d="M5948 2999 c-20 -11 -24 -55 -6 -61 22 -8 56 4 63 19 3 9 -2 24 -11
34 -19 22 -23 22 -46 8z"/>
<path d="M201 2966 c-9 -11 -9 -34 -1 -96 17 -124 30 -146 69 -121 14 9 13 27
-15 199 -5 35 -32 44 -53 18z"/>
<path d="M256 2476 c-27 -20 -8 -68 25 -63 28 5 42 22 35 45 -8 24 -40 34 -60
18z"/>
<path d="M5864 2407 c-3 -8 -6 -34 -7 -58 -2 -41 0 -44 23 -44 21 0 26 6 34
42 5 23 6 49 3 57 -8 19 -46 21 -53 3z"/>
<path d="M5820 2226 c-14 -50 -8 -66 21 -66 14 0 25 12 35 36 20 47 15 68 -17
72 -23 3 -28 -2 -39 -42z"/>
<path d="M344 2187 c-14 -38 41 -140 59 -109 7 10 -22 94 -39 111 -11 13 -14
12 -20 -2z"/>
<path d="M5684 2019 c-23 -25 -9 -53 29 -57 21 -3 28 2 33 24 5 20 2 31 -11
41 -25 17 -29 17 -51 -8z"/>
<path d="M323 1983 c-21 -8 -15 -35 27 -121 30 -63 44 -82 60 -82 36 0 33 28
-11 117 -44 86 -52 96 -76 86z"/>
<path d="M602 1558 c-20 -20 -14 -41 26 -96 26 -37 43 -51 57 -49 33 4 28 39
-12 96 -42 60 -53 67 -71 49z"/>
<path d="M5492 1394 c-27 -19 -28 -40 -4 -53 34 -18 58 -10 60 21 3 36 -26 53
-56 32z"/>
<path d="M792 1233 c-6 -2 -10 -9 -6 -14 3 -5 0 -9 -5 -9 -30 0 7 -161 44
-192 11 -9 48 -24 83 -32 73 -17 97 -34 106 -78 13 -64 63 -107 107 -93 27 9
35 51 15 74 -10 11 -24 43 -31 72 -19 73 -47 97 -130 114 -38 8 -75 21 -83 29
-7 7 -16 33 -19 57 -8 65 -37 90 -81 72z"/>
<path d="M5295 1206 c-20 -14 -25 -30 -29 -87 -3 -37 -28 -84 -39 -72 -4 3 -7
0 -7 -7 0 -7 -3 -11 -6 -7 -4 3 -15 -4 -25 -16 -10 -12 -18 -16 -19 -9 0 19
-26 14 -58 -13 -26 -21 -33 -37 -48 -104 -4 -20 -17 -31 -43 -36 -12 -2 -31
-7 -41 -10 -10 -3 -28 -8 -41 -10 -23 -5 -72 -45 -64 -53 2 -3 0 -12 -5 -22
-11 -21 13 -60 38 -60 9 0 28 12 43 26 19 18 43 28 82 33 70 9 83 21 103 88
18 63 44 91 93 98 97 15 129 57 130 175 1 54 -3 69 -19 83 -24 20 -22 20 -45
3z"/>
<path d="M1211 1101 c-11 -21 8 -56 31 -56 23 -1 40 32 28 55 -13 25 -46 26
-59 1z"/>
<path d="M4586 839 c-143 -92 -147 -96 -117 -120 28 -23 35 -23 54 -4 8 8 21
16 28 17 14 3 29 13 54 36 8 7 15 10 15 5 0 -4 5 0 11 10 5 9 18 17 28 17 9 0
27 11 39 25 12 14 26 25 31 25 5 0 11 7 15 15 6 16 -18 45 -37 45 -7 0 -61
-32 -121 -71z"/>
<path d="M1287 842 c-23 -25 -21 -38 5 -56 20 -14 24 -14 40 1 22 20 23 37 2
57 -20 20 -27 20 -47 -2z"/>
<path d="M1385 734 c-31 -31 -14 -55 75 -108 93 -56 201 -106 229 -106 10 0
23 11 29 24 14 31 1 44 -107 96 -45 22 -94 49 -109 60 -15 11 -44 26 -64 35
-33 13 -38 13 -53 -1z"/>
<path d="M4520 590 c0 -3 -24 -17 -52 -30 -29 -13 -85 -38 -124 -57 -39 -18
-80 -35 -92 -38 -11 -2 -29 -8 -39 -13 -10 -6 -21 -10 -25 -11 -5 -1 -10 -2
-13 -2 -3 -1 -8 -2 -12 -3 -5 -1 -29 -9 -55 -19 -51 -20 -62 -43 -32 -68 14
-12 33 -8 128 25 117 40 260 103 336 146 34 20 45 32 45 51 0 20 -5 24 -32 25
-18 1 -33 -2 -33 -6z"/>
<path d="M2112 548 c-30 -30 -16 -43 98 -82 184 -62 430 -110 452 -88 16 16
-1 46 -28 50 -10 2 -26 6 -34 9 -8 3 -22 5 -32 4 -9 -1 -19 3 -23 9 -3 6 -10
8 -15 5 -10 -6 -195 36 -246 55 -16 6 -29 11 -29 10 0 0 -27 9 -59 20 -69 24
-69 23 -84 8z"/>
<path d="M1851 471 c-12 -21 -5 -31 20 -31 24 0 33 18 19 35 -17 20 -27 19
-39 -4z"/>
<path d="M3826 470 c-85 -20 -107 -33 -89 -51 17 -17 208 30 208 51 0 21 -28
21 -119 0z"/>
</g>
</svg>
